<svg xmlns="http://www.w3.org/2000/svg" width="229" height="229" viewBox="0 0 229 229">
  <g id="circled_search_icon" transform="translate(-1301 503)">
    <circle id="Elipse_13" data-name="Elipse 13" cx="114.5" cy="114.5" r="114.5" transform="translate(1301 -503)" fill="#325df9"/>
    <path id="União_3" data-name="União 3" d="M-1269.608,545.922v-6.694l-1.923-1.879a47.774,47.774,0,0,1-4.5,3.429,47.623,47.623,0,0,1-8.085,4.371,47.579,47.579,0,0,1-8.934,2.762,48.174,48.174,0,0,1-9.593.963,48.165,48.165,0,0,1-9.593-.963,47.552,47.552,0,0,1-8.934-2.762,47.632,47.632,0,0,1-8.085-4.371,47.843,47.843,0,0,1-7.045-5.788,47.816,47.816,0,0,1-5.812-7.016,47.313,47.313,0,0,1-4.388-8.052,47,47,0,0,1-2.774-8.9,47.582,47.582,0,0,1-.967-9.554,47.566,47.566,0,0,1,.967-9.553,47,47,0,0,1,2.774-8.9,47.309,47.309,0,0,1,4.388-8.052,47.763,47.763,0,0,1,5.812-7.016,47.837,47.837,0,0,1,7.045-5.788,47.628,47.628,0,0,1,8.085-4.371,47.48,47.48,0,0,1,8.934-2.762,48.165,48.165,0,0,1,9.593-.963,48.174,48.174,0,0,1,9.593.963,47.507,47.507,0,0,1,8.934,2.762,47.619,47.619,0,0,1,8.085,4.371,47.837,47.837,0,0,1,7.045,5.788,47.749,47.749,0,0,1,5.811,7.016,47.306,47.306,0,0,1,4.389,8.052,47.132,47.132,0,0,1,2.774,8.9,47.565,47.565,0,0,1,.966,9.553,47.581,47.581,0,0,1-.966,9.554,47.132,47.132,0,0,1-2.774,8.9,47.31,47.31,0,0,1-4.389,8.052,47.6,47.6,0,0,1-3.137,4.122l2.554,2.609h5.365l36.645,36.644-11.219,11.218Zm-65.345-44.452a32.285,32.285,0,0,0,32.314,32.183,32.285,32.285,0,0,0,32.313-32.183,32.285,32.285,0,0,0-32.313-32.182A32.284,32.284,0,0,0-1334.953,501.469Z" transform="translate(2700.473 -908.131)" fill="#fff"/>
  </g>
</svg>
