<svg fill="#fff" xmlns="http://www.w3.org/2000/svg" width="518.947" height="335.11" viewBox="0 0 518.947 335.11">
  <path id="wikipedia_logo_1" d="M336.99,335.11,269.984,183.134,190.254,335.1h-11.9L61.08,65.872S33.07,11.252,0,12V0H132V12C90.14,16.853,95.742,36.46,95.742,36.46L198.453,272.969s29.8-56.451,60.563-114.712L205.6,37.1C194.4,14.7,185.156,12.74,155.193,11.24V0H270.735V11.24c-27.008-.446-27.334,12.142-23.414,22.223,1.487,3.822,17.255,37.687,36.264,78.266,21.677-41.047,39.581-74.938,41.886-79.266,6.246-11.726-4.46-21.668-31.468-21.222V0h99.885V11.24C360.4,15.382,350.2,31.059,346.63,37.049l-51.783,98.7c28.668,61.1,59.653,126.827,59.653,126.827L452.133,39.2c1.816-4.45,3.6-23.7-36.04-27.963V0H518.947V11.24c-33.07-.748-45.924,35.384-45.924,35.384L347.78,335.11Z"/>
</svg>
