<svg xmlns="http://www.w3.org/2000/svg" width="129" height="129" viewBox="0 0 129 129">
  <path id="circled_arrow" d="M64.5,129a64.979,64.979,0,0,1-13-1.31,64.147,64.147,0,0,1-23.064-9.705A64.688,64.688,0,0,1,5.069,89.606,64.177,64.177,0,0,1,1.31,77.5a65.129,65.129,0,0,1,0-26,64.147,64.147,0,0,1,9.705-23.064A64.689,64.689,0,0,1,39.394,5.069,64.177,64.177,0,0,1,51.5,1.31a65.129,65.129,0,0,1,26,0,64.146,64.146,0,0,1,23.064,9.705,64.689,64.689,0,0,1,23.369,28.378A64.177,64.177,0,0,1,127.69,51.5a65.13,65.13,0,0,1,0,26,64.146,64.146,0,0,1-9.705,23.064,64.688,64.688,0,0,1-28.378,23.369A64.177,64.177,0,0,1,77.5,127.69,64.979,64.979,0,0,1,64.5,129ZM38.614,51.772,64.5,78.372l25.886-26.6Z" transform="translate(0 0)" fill="#fff"/>
</svg>
