<svg xmlns="http://www.w3.org/2000/svg" width="339" height="338" viewBox="0 0 339 338">
  <path id="clock_icon" d="M135.339,334.567a168.866,168.866,0,0,1-60.609-25.429A170.235,170.235,0,0,1,28.948,263.49,168.608,168.608,0,0,1,49.646,49.5,169.782,169.782,0,0,1,310.053,74.511a168.6,168.6,0,0,1-20.7,213.99,170.206,170.206,0,0,1-154.015,46.066ZM31,169c0,76.093,62.131,138,138.5,138S308,245.093,308,169,245.869,31,169.5,31,31,92.906,31,169Zm120,17V84h25v89.433l76.728,44.733-11.955,20.612Z" fill="#383838"/>
</svg>
