<svg xmlns="http://www.w3.org/2000/svg" width="207.132" height="129.285" viewBox="0 0 207.132 129.285">
  <path id="font_icon" d="M131.993,180.743a25.718,25.718,0,0,1-9.083-20.165q0-14.949,11.082-22.945t32.027-8.083h11.56v-5.388q0-6.519-3.346-10.43t-10.56-3.91q-6.345,0-9.952,3.042a10.334,10.334,0,0,0-3.606,8.343H125a25.231,25.231,0,0,1,5.041-15.123,33.33,33.33,0,0,1,14.253-10.908,51.955,51.955,0,0,1,20.686-3.955q17.383,0,27.6,8.735t10.212,24.553v40.763q.086,13.385,3.737,20.251V187H181.143a27.878,27.878,0,0,1-2.521-8.431q-9.126,10.17-23.728,10.169Q141.075,188.738,131.993,180.743Zm16.122-23.467-.086,1.478a10.054,10.054,0,0,0,3.3,7.735q3.3,3.042,9.039,3.042a21.63,21.63,0,0,0,10.256-2.477,16.271,16.271,0,0,0,6.953-6.649V144.239h-9.387Q149.333,144.239,148.115,157.275ZM91.52,187l-8.778-26.075H37.025L28.334,187H.608L47.716,60.453H71.878L119.246,187ZM44.066,139.806H75.7L59.8,92.437Z" transform="translate(0.111 -59.953)" fill="#383838" stroke="rgba(0,0,0,0)" stroke-miterlimit="10" stroke-width="1"/>
</svg>
