<svg xmlns="http://www.w3.org/2000/svg" width="256.123" height="232.775" viewBox="0 0 256.123 232.775">
  <path id="translate_icon" d="M233.23,232.775l-13.435-34.236h-55.4l-13.435,34.236H128.064L180,93.687h24.187l51.936,139.088Zm-59.692-58.387H210.65l-18.459-49.607Zm-155.2,6.988S54.2,147.112,77.625,123.718c-22.949-24.256-35.059-54-35.059-54h23.2a208.925,208.925,0,0,0,27.7,39.5c27.761-33.148,35.891-61.528,35.891-61.528H0v-24H80.625V0H105V23.687h81v24H151.93S140.288,90.155,109,123.718l28.918,29.142-8.515,23.613L93.263,139.557,34.755,198.428Z"/>
</svg>
